<svg xmlns="http://www.w3.org/2000/svg" viewBox="0 0 512 512" width="100%" height="100%">
  <!-- Circular Badge -->
  <circle cx="256" cy="256" r="236" fill="#202020" stroke="#008080" stroke-width="16"/>
  <!-- Stylized Anchor -->
  <path d="M256 48c-17.7 0-32 14.3-32 32s14.3 32 32 32 32-14.3 32-32-14.3-32-32-32zm0 88c-13.3 0-24 10.7-24 24v24h-48c-13.3 0-24 10.7-24 24s10.7 24 24 24h48v48c0 13.3 10.7 24 24 24s24-10.7 24-24v-48h48c13.3 0 24-10.7 24-24s-10.7-24-24-24h-48v-24c0-13.3-10.7-24-24-24zm128 144c-13.3 0-24 10.7-24 24 0 57.3-46.7 104-104 104s-104-46.7-104-104c0-13.3-10.7-24-24-24s-24 10.7-24 24c0 74.4 54.3 136.2 124 149.3V432h-24c-13.3 0-24 10.7-24 24s10.7 24 24 24h96c13.3 0 24-10.7 24-24s-10.7-24-24-24h-24v-30.7c69.7-13.1 124-74.9 124-149.3 0-13.3-10.7-24-24-24z" fill="#F1A56F"/>
</svg>
